<svg xmlns="http://www.w3.org/2000/svg" width="131.419" height="120.375" viewBox="0 0 131.419 120.375">
  <path id="Контур_43" data-name="Контур 43" d="M1018.818,419.49a68.648,68.648,0,0,1,46.464,17.627c11.89,10.891,19.245,25.938,19.245,42.559s-7.355,31.671-19.245,42.562a70.051,70.051,0,0,1-92.928,0c-11.89-10.891-19.245-25.941-19.245-42.562s7.355-31.667,19.245-42.559a68.65,68.65,0,0,1,46.464-17.627Zm2.809,32.214a5.3,5.3,0,0,1,.358-.945,13.169,13.169,0,0,0,.558-6.9,7.128,7.128,0,0,1-.221-1.2h-7.93c0,.673.1.7.138,1.278a30.25,30.25,0,0,1-.036,4.17c-.159,1.158-.793,4.025-1.549,4.572a5.336,5.336,0,0,1-1.107.384,16.422,16.422,0,0,0-6.874,4.159,17.2,17.2,0,0,0-2.585,3.493,19.834,19.834,0,0,0-1.792,4.347,21.907,21.907,0,0,0-.109,10.609c.272,1.035.275,1.3,1.079,1.944,1.81,1.448,8.9,1.871,8.665-1.944-.123-1.976-1.256-3.793-.062-8.086a11.092,11.092,0,0,1,4.336-6.349c2.957-2.244,7.456-2.085,9.632,1.69a21.122,21.122,0,0,0,2.175-.688c1.636-.525,5.491-1.882,6.591-2.117a2.637,2.637,0,0,0-.724-1.252c-.974-1.314-2.541-2.726-2.9-3.207a25.716,25.716,0,0,0,3.319-3.587,30.393,30.393,0,0,0,3.41-5.292c1.006-1.911.9-1.437-1.983-1.965l-6.135-1.137a29.48,29.48,0,0,1-3.573,5.267,28.009,28.009,0,0,1-2.686,2.762Zm-22.818,9.049,1.115-2.168c-1.093-.232-2.146-.55-3.33-.775a24.638,24.638,0,0,0-3.627-.626,1.278,1.278,0,0,0-1.151,1.549c.391,1.017,2.62,1.075,4.517,1.484a21.617,21.617,0,0,0,2.476.536Zm-3.478-7.645c0,1.52,2.686,1.245,5.147,1.781,2.49.543,1.922.608,3.1-.478.347-.322.561-.67,1.075-.8v-.253c-1.647-.127-9.32-2.939-9.32-.253ZM1013,470.055c0,1.234.452,1.7.752,3.258a18.374,18.374,0,0,1,.221,6.045c-1.325.282-6.124-.025-6.124,1.4,0,.655-.036,1.064.746,1.368a2.092,2.092,0,0,0,1.423-.018,35.037,35.037,0,0,1,3.522-.217c2.924-.272,3.355-2.063,3.355-4.445a19.174,19.174,0,0,0-1.726-8.484c-.243-.536-.811-1.929-1.473-2.092a18.248,18.248,0,0,0-.695,3.185Zm9.874-4.079c-.116-.4-1.719-3.312-3.2-3.312a7.3,7.3,0,0,0-2.222.257c.047.536.38.648,1.144,1.5a13.209,13.209,0,0,1,1.14,1.5c1.643,2.469,1.151,2.859,3,2.859l3.569-1.571a34.926,34.926,0,0,1,19.466-2.07l5.9,1.22a1.189,1.189,0,0,0,.217-2.367c-.655-.2-1.187-.308-1.861-.463a49.749,49.749,0,0,0-7.952-1.252c-6.23-.167-9.987.2-15.926,2.371l-3.28,1.328Zm.141,9.306v2.548c0,2.671-1.227,4.289.449,5.831,1.353,1.249,2.751,2.146,2.751,5.382a3.518,3.518,0,0,1-.634,2.349,8.05,8.05,0,0,1-.637.691,2.8,2.8,0,0,1-.775.7,26.351,26.351,0,0,1-7.134,4.043c-.63.253-1.445.547-2.107.742-2.541.757-1.564,2.44.018,2.44s6.769-2.566,8.542-3.645c.42-.257.7-.471,1.057-.688-.181,1.98-5.451,9.907-5.364,10.67a1.433,1.433,0,0,0,2.468.568c.8-.977,3.595-6.472,4.007-6.906a9.363,9.363,0,0,0,.275,1.4c.406,2.635-.858,4.456,1.394,4.456,2.429,0,1.3-5.143.977-6.374-1.035-3.877-.9-2.968.054-6.443a14.089,14.089,0,0,0,.224-6.682c.692.427,2.259,1.419,2.975.17.637-1.1-.782-1.69-1.947-2.389-5.473-3.283-4.286-.452-3.819-5.686.1-1.166.007-2.736.007-3.945,6.4-3.927,14.236-4.81,21.92-3.261.579.12,1.01.217,1.56.358.756.188,1.853.648,2.617.051s.829-1.726-1.252-2.193a36.43,36.43,0,0,0-11.351-1.325,31.669,31.669,0,0,0-14.044,3.829c-3.113,1.633-2.233,1.567-2.233,3.308Zm-34.223,2.675c0,5.19,2.1,6.153,2.215,7.022.025.21-.268,1.933-.268,3.044,0,5.1,3.9,10.714,8.068,13.635l10.819,9.335c.383.351.641.5,1.042.829,2.378,1.94,7,4.876,10.121,4.876a14.538,14.538,0,0,0,8.665-3.023c6.96-4.774,13.084-14.728,10.869-23.538a13.782,13.782,0,0,0-.525-1.556,14.474,14.474,0,0,1-.648-1.574,11.2,11.2,0,0,0,2.6-3.355,9.588,9.588,0,0,0,.775-7.891c-.945-2.928-1.278-2.393-3.232-2.393-3.5,0-2.4.315-1.625,1.491a6.945,6.945,0,0,1,.373,7.3,10.852,10.852,0,0,1-1.531,2.168c-1.991,2.356-2.288,1.679-.934,4.546,1.893,4,1.194,7.807-.337,11.615a25.371,25.371,0,0,1-4.155,6.649c-1.886,2.259-5.8,5.411-8.94,5.954a5.128,5.128,0,0,1-3.088-.42c-3.4-1.249-10.044-7.087-12.632-9.454-1.9-1.752-6.642-5.433-7.894-6.913-3.489-4.13-5.454-9.722-1.708-14.181a1.724,1.724,0,0,0-1.075-3.022,2.291,2.291,0,0,0-1.842.474l-.8.927c-.836-3.294.644-6.562,3.033-8.944.655-.651.438-.492.442-1.636,0-1.2.395-2.61.424-3.692a12.791,12.791,0,0,0-2.888,2.071c-2.672,2.454-5.321,5.784-5.321,9.653Zm67.783-32.865a56.924,56.924,0,0,0-75.518,0,46.063,46.063,0,0,0,0,69.173,56.934,56.934,0,0,0,75.518,0,46.07,46.07,0,0,0,0-69.173Z" transform="translate(-953.108 -419.49)" fill="#a3701c" fill-rule="evenodd"/>
</svg>
