<svg xmlns="http://www.w3.org/2000/svg" width="131.419" height="120.375" viewBox="0 0 131.419 120.375">
  <path id="Контур_45" data-name="Контур 45" d="M1018.818,272.971a68.647,68.647,0,0,1,46.464,17.627c11.89,10.891,19.245,25.941,19.245,42.559s-7.355,31.671-19.245,42.562a70.051,70.051,0,0,1-92.928,0c-11.89-10.891-19.245-25.941-19.245-42.562s7.355-31.667,19.245-42.559a68.649,68.649,0,0,1,46.464-17.627Zm37.759,25.6a56.924,56.924,0,0,0-75.518,0,46.063,46.063,0,0,0,0,69.173,56.934,56.934,0,0,0,75.518,0,46.07,46.07,0,0,0,0-69.173Z" transform="translate(-953.108 -272.971)" fill="#1a1818" fill-rule="evenodd"/>
</svg>
