<svg xmlns="http://www.w3.org/2000/svg" width="131.419" height="120.379" viewBox="0 0 131.419 120.379">
  <path id="Контур_47" data-name="Контур 47" d="M1018.818,468.253a68.633,68.633,0,0,1,46.464,17.631c11.89,10.888,19.245,25.938,19.245,42.559s-7.355,31.667-19.245,42.559a70.041,70.041,0,0,1-92.928,0c-11.89-10.891-19.245-25.938-19.245-42.559s7.355-31.671,19.245-42.559a68.635,68.635,0,0,1,46.464-17.631Zm37.759,25.6a56.934,56.934,0,0,0-75.518,0,46.063,46.063,0,0,0,0,69.173,56.924,56.924,0,0,0,75.518,0,46.07,46.07,0,0,0,0-69.173Z" transform="translate(-953.108 -468.253)" fill="#1a1818" fill-rule="evenodd"/>
</svg>
