<svg xmlns="http://www.w3.org/2000/svg" width="85.582" height="67.429" viewBox="0 0 85.582 67.429">
  <g id="Сгруппировать_242" data-name="Сгруппировать 242" transform="translate(-43.606 -428.392)">
    <text id="_200-500_мг" data-name="200-500 мг" transform="translate(85 491.82)" fill="#313133" font-size="15" font-family="SegoeUI, Segoe UI"><tspan x="-37.449" y="0">200-500 мг</tspan></text>
    <text id="_3_" data-name="3+" transform="translate(110.188 461.321)" fill="#313133" font-size="30" font-family="SegoeUI, Segoe UI"><tspan x="-18.347" y="0">3+</tspan></text>
    <path id="Контур_37" data-name="Контур 37" d="M64.475,445.735a7.631,7.631,0,0,0,1.473-1.01,16.93,16.93,0,0,0,4.043-4.711,20.84,20.84,0,0,0,1.29-2.5l.758-1.768a12.866,12.866,0,0,0,.685-1.839h.085c.054.232.44.955.563,1.33.726,2.2.07,3.88-.462,6.01a3.462,3.462,0,0,0-.143.571l1.716-.387a11.756,11.756,0,0,0,2.963-1.246l1.516-1.092a11.5,11.5,0,0,0,1.285-1.367,10.443,10.443,0,0,0,1.561-2.646c.1-.246.192-.527.3-.753a7.226,7.226,0,0,1,1.111,2.13,10.559,10.559,0,0,1,.32,4.6c-.022.2-.068.407-.084.59a10.926,10.926,0,0,0,2.778-1.051,10.6,10.6,0,0,0,2.7-2.094,11.623,11.623,0,0,0,2.244-3.564,5.926,5.926,0,0,0,.27-.7,2.107,2.107,0,0,0,.547.084l.547,6.607a7.63,7.63,0,0,0,4.058-1.37,9.161,9.161,0,0,0,2.914-3.441l.7-1.616c.059-.155.045-.224.157-.306.151.648,1.127,2.9,1.37,3.51.453,1.139.988,2.251,1.532,3.349.132.266.288.512.436.785.073.134.138.242.221.368a8.118,8.118,0,0,0,2,2.3,4.661,4.661,0,0,0,2.819.842,27.693,27.693,0,0,0-.563-6.759,20.089,20.089,0,0,0-3.049-7.093l-.587-.8c-.408-.495-.788-1-1.242-1.452-.134-.133-.18-.226-.314-.359l-1.424-1.311c-.265-.206-.473-.409-.74-.608l-.77-.577c-.278-.2-.512-.356-.8-.547-3.415-2.277-7.981-4.141-12.145-4.141a19.423,19.423,0,0,0-6.139.762,25.236,25.236,0,0,0-8,4.036l-1.947,1.631a21.674,21.674,0,0,0-3.214,3.9c-.19.283-.354.584-.519.869a20.684,20.684,0,0,0-.943,1.92,21.255,21.255,0,0,0-1.56,5.551c-.069.428-.117.791-.154,1.235s-.112.862-.124,1.306c-.025.909-.041,1.855-.041,2.821Zm12.919-.926c0-2.138,3.15-2.464,3.867-.583a2.564,2.564,0,0,1,.121,1.289,2.06,2.06,0,0,1-2.828,1.375,1.918,1.918,0,0,1-1.16-2.081Zm14.561,0c0-2.393,4-2.493,4,.127v.294a1.845,1.845,0,0,1-2,1.831,2.412,2.412,0,0,1-1.4-.535,1.932,1.932,0,0,1-.6-1.716Zm-5.134,10.479a8.473,8.473,0,0,1-4.59-1.3,9.915,9.915,0,0,1-.832-.556l-.386-.288c-.136-.107-.251-.205-.391-.324-.085-.07-.1-.07-.187-.149-.066-.062-.1-.109-.168-.168-.272-.24-1.04-1-1.1-1-.489,0-1.473.848-1.473,1.3a9.609,9.609,0,0,0,1.589,1.9c.151.153.282.25.442.4l1,.768a10.517,10.517,0,0,0,7.714,1.736,11.894,11.894,0,0,0,2.626-.825,10.921,10.921,0,0,0,3.959-2.943A4.172,4.172,0,0,0,95.7,452.8a1.963,1.963,0,0,0-1.431-1.346,14.377,14.377,0,0,0-1.486,1.334,9.523,9.523,0,0,1-5.963,2.5ZM65.4,449.86l2.819-.547a8.167,8.167,0,0,1,.268.784c.345,1.013.712,1.74,1.074,2.631.057.142.092.208.16.344l.547,1.052c.068.129.1.211.174.331.4.654.747,1.277,1.2,1.91l.9,1.165c.1.113.146.18.253.294s.122.166.23.275a19.043,19.043,0,0,0,1.865,1.8,16.508,16.508,0,0,0,2.126,1.494,17.874,17.874,0,0,0,6.129,2.2,18.925,18.925,0,0,0,12.908-2.055c.227-.138.4-.252.626-.383a14.9,14.9,0,0,0,1.749-1.282l2.079-2a22.455,22.455,0,0,0,2.514-3.547c.121-.224.226-.411.35-.659.07-.142.114-.191.183-.322a30.629,30.629,0,0,0,1.324-3.222c.075-.229.19-.52.247-.764.333.078,2.666.476,2.9.59-.17.729-.208,1.153-.438,1.961a18.657,18.657,0,0,1-2.693,5.556,25.358,25.358,0,0,1-2.119,2.595l-1.83,1.7a25.484,25.484,0,0,1-2.743,2.012,23.141,23.141,0,0,1-2.688,1.437c-.157.066-.239.12-.4.186a21.949,21.949,0,0,1-2.143.8c-.145.039-.28.093-.448.141a19.873,19.873,0,0,1-8.437.646,18.977,18.977,0,0,1-2.04-.358c-.647-.149-1.3-.323-1.882-.517-.3-.1-.6-.193-.883-.294a24.083,24.083,0,0,1-4.422-2.186,24.968,24.968,0,0,1-2.378-1.746c-.121-.1-.231-.186-.339-.293l-1.515-1.473c-.1-.109-.192-.189-.295-.294a23.186,23.186,0,0,1-2.307-3.038,20.209,20.209,0,0,1-1.622-3.175A16.28,16.28,0,0,1,65.4,449.86Z" transform="translate(-20.869 6.686)" fill="#313133" fill-rule="evenodd"/>
  </g>
</svg>
