<svg xmlns="http://www.w3.org/2000/svg" width="81.458" height="66.101" viewBox="0 0 81.458 66.101">
  <g id="Сгруппировать_243" data-name="Сгруппировать 243" transform="translate(-195 -435.311)">
    <text id="_500-1000_мг" data-name="500-1000 мг" transform="translate(198.458 497.412)" fill="#313133" font-size="14" font-family="SegoeUI, Segoe UI"><tspan x="0" y="0">500-1000 мг</tspan></text>
    <g id="Сгруппировать_231" data-name="Сгруппировать 231" transform="translate(-11.36)">
      <path id="Контур_29" data-name="Контур 29" d="M199.257,465.816v1.073h45.435c0-6.745-3.266-10.684-9.364-12.884a29.99,29.99,0,0,0-5.915-1.323c-.126.542-3.083,6.166-3.619,7.238a9.367,9.367,0,0,1-1.34,2.413l-.8-6.165a3.538,3.538,0,0,0,1.206-1.072h-5.763c.1.383.2.353.487.585a2.724,2.724,0,0,0,.718.487l-.8,6.3-3.8-7.327a22.366,22.366,0,0,0-1.295-2.457,23.03,23.03,0,0,0-10.38,3.693A11.808,11.808,0,0,0,199.257,465.816Z" transform="translate(30.289 10.541)" fill="#313133" fill-rule="evenodd"/>
      <path id="Контур_30" data-name="Контур 30" d="M184.205,439.18v11.392h9.381c-.135-.5-.5-.637-.806-1.07-.238-.332-.513-.739-.748-1.13-1.281-2.138-2.736-5.966-2.736-8.522a12.565,12.565,0,0,0,8.546-3.115,1.8,1.8,0,0,0,.7-.906h.4c.382,1.43,4.261,3.205,6.031,3.618a19.4,19.4,0,0,1-2.686,8.84c-.536.891-1.524,1.994-1.6,2.285h9.382V439.046a16.256,16.256,0,0,0-3.051-9.816,9.608,9.608,0,0,0-3.512-2.921,15.513,15.513,0,0,0-12.651-.044,10.68,10.68,0,0,0-3.6,2.965C185.477,431.385,184.205,435.272,184.205,439.18Z" transform="translate(30.197 10.372)" fill="#313133" fill-rule="evenodd"/>
      <path id="Контур_31" data-name="Контур 31" d="M211.786,437.3c-1.825.425-1.2,3.175-.441,3.925.852.846.894-.179,1.431,1.519a15.455,15.455,0,0,0,2.595,4.777c3.207,3.57,5.934,5.272,10.616,2.238a15.6,15.6,0,0,0,5.062-6.6c.9-2.263.14-1.11,1.168-1.78.915-.595,1.551-3.674-.193-4.08,0-6.342-2.94-12.331-9.516-12.331a10,10,0,0,0-6.93,2.183c-.267.227-.43.417-.688.652l-.21.193a11.633,11.633,0,0,0-2.861,6.52A25.018,25.018,0,0,0,211.786,437.3Z" transform="translate(30.359 10.372)" fill="#313133" fill-rule="evenodd"/>
      <path id="Контур_32" data-name="Контур 32" d="M176.211,465.945v.938h19.434c-.762-1.138-6.6-6.236-6.834-7.1l2.04-2.115-2.979-.03a18.32,18.32,0,0,1,1.91-1.976c.447-.447,1.7-1.524,1.843-2.044a28.9,28.9,0,0,0-5.764,1.071,12.856,12.856,0,0,0-8.151,5.788A12.332,12.332,0,0,0,176.211,465.945Z" transform="translate(30.149 10.547)" fill="#313133" fill-rule="evenodd"/>
    </g>
  </g>
</svg>
