<svg xmlns="http://www.w3.org/2000/svg" width="46" height="67.945" viewBox="0 0 46 67.945">
  <g id="Сгруппировать_244" data-name="Сгруппировать 244" transform="translate(-1211 -345.142)">
    <text id="_700_мг" data-name="700 мг" transform="translate(1212 409.087)" fill="#313133" font-size="15" font-family="SegoeUI, Segoe UI"><tspan x="0" y="0">700 мг</tspan></text>
    <g id="Сгруппировать_236" data-name="Сгруппировать 236" transform="translate(855.726 -86.4)">
      <path id="Контур_33" data-name="Контур 33" d="M334.377,455.608a4.708,4.708,0,0,1,.893-3.061,3.728,3.728,0,0,1,.838-.9,5.181,5.181,0,0,1,1.061-.68,4.759,4.759,0,0,1,4.7.4,2.718,2.718,0,0,1,.332.233,3.862,3.862,0,0,1,.594.584c.1.119.155.173.257.309a4.783,4.783,0,0,1,.928,2.557,4.411,4.411,0,0,1-.487,2.432,4.765,4.765,0,0,1-6.247,2.278,4.215,4.215,0,0,1-1.4-.956,4.482,4.482,0,0,1-.986-1.321,4.75,4.75,0,0,1-.485-1.868ZM329.9,421.193a4.305,4.305,0,0,0-3.575,1.789,3.576,3.576,0,0,0-.565,1.223c-.319-.026-1-.639-1.7.322-.768,1.046-.77,4.09.842,4.493a2.407,2.407,0,0,0,.624.022c.192-.013.108-.1.184.065.107.225.092,2.506,1.811,3.085.154.051.388.1.5.158a6.523,6.523,0,0,1-.537,3.039c-.258.894-.445,1.164-.706,2.354a11.91,11.91,0,0,1-.28,1.227c-.126.423-.241.783-.365,1.188l-2.093,7.088a46.536,46.536,0,0,0-1.2,4.923,3.285,3.285,0,0,0,.982,2.5A30.324,30.324,0,0,0,328,458.03l.618.512a1.691,1.691,0,0,0,.2.173c-.1.2-.164.368-.267.582l-.931,1.754a5.948,5.948,0,0,0-1.015,2.514l1.055.593c.185.112.338.167.529.271.859.463,1.923,1.031,2.8,1.39.4.163.757.32,1.164.484a11.545,11.545,0,0,0,4.427,1.029h.009a7.743,7.743,0,0,0,1.413-.231c.911-.183,3.232-.905,3.574-1.417-.128-.19-.324-.33-.491-.545l-1.3-1.284a.5.5,0,0,1-.228-.29,6.458,6.458,0,0,0,2.429-1.007,8.2,8.2,0,0,0,3.111-3.764,8.392,8.392,0,0,0-.037-6.475,12.366,12.366,0,0,0-4.265-5.057,6.854,6.854,0,0,0-1.143-.74,4.55,4.55,0,0,0,.565-1.977c0-1.434.2-.705-1.59-2.177-.2-.16-.354-.273-.556-.432a29.607,29.607,0,0,1-2.83-2.585l-.688-.818a6.5,6.5,0,0,1-1.586-3.4,3.156,3.156,0,0,1,.847-2.307,4.858,4.858,0,0,0,2.765.222c.7-.352.107-1.229.107-1.588,0-.17.425-.2.425-.424,0-.252-.171-.3-.283-.471a.667.667,0,0,0,.329-.283c-.073-.318-.337-.325-.376-.8,1.393-.736.434-1.147-.177-1.8a1.7,1.7,0,0,1-.459-.959c-.078-.493.328.041-.217-1.473a6.081,6.081,0,0,0-1.029-1.794c-.114-.147-.219-.23-.33-.377-.244-.321-.33-.193-.33-.376s.156-.586-.343-.833a9.644,9.644,0,0,0-3.974-.673Zm-3.575,30.79a7.882,7.882,0,0,1,.733-2.844l.961-2.476c.007.01.015.014.017.03l.329.661c.133.266.219.458.344.738a13.674,13.674,0,0,1,1.072,6.737l-.161,1.157a4.456,4.456,0,0,1-.417-.478l-2.542-2.92C326.494,452.378,326.326,452.359,326.326,451.983Z" transform="translate(41.503 10.349)" fill="#313133" fill-rule="evenodd"/>
      <path id="Контур_34" data-name="Контур 34" d="M336.272,438.666a5.633,5.633,0,0,0,.518.329,5.746,5.746,0,0,1,.835-1.047c1.845-1.842,4.011-2.091,6.479-1.324A12.188,12.188,0,0,1,346.875,438a17.072,17.072,0,0,1,1.956,1.575,3.756,3.756,0,0,1,.329.377,9.955,9.955,0,0,1,.953,1.119,12.253,12.253,0,0,1,1.833,9.883,17.933,17.933,0,0,1-2.113,5.232c-.113.2-.2.333-.317.53l-2.054,2.842c-.134.158-.238.276-.373.428a34.068,34.068,0,0,1-2.854,2.89,19.835,19.835,0,0,1-1.843,1.453,2.555,2.555,0,0,0,.33.564l3.049-2.554a34.309,34.309,0,0,0,6.263-7.812,17.764,17.764,0,0,0,2.552-7.806,10.139,10.139,0,0,0-.726-4.547c-.145-.363-.27-.6-.435-.931a5.538,5.538,0,0,0-.991-1.363l-.5-.54c-.14-.138-.235-.186-.377-.329a16.053,16.053,0,0,0-4.293-2.581,11.4,11.4,0,0,0-6.957-.689,6.706,6.706,0,0,0-3.558,2.233A2.674,2.674,0,0,0,336.272,438.666Z" transform="translate(41.585 10.436)" fill="#313133" fill-rule="evenodd"/>
      <path id="Контур_35" data-name="Контур 35" d="M325.534,462.659c.056-.214.126-.109.188-.377l-.774-.686c-.3-.231-.536-.456-.821-.685-.851-.688-2.409-2.09-3.125-2.806-.262-.262-.446-.494-.706-.754l-.354-.4c-.068-.077-.117-.111-.185-.191a16.5,16.5,0,0,1-2.509-3.8,12.216,12.216,0,0,1-.894-7.438,8.864,8.864,0,0,1,1.157-2.7,8.489,8.489,0,0,1,2.97-2.82,6,6,0,0,1,4.629-.691,3.324,3.324,0,0,1,.142-.518,7.739,7.739,0,0,0-2.683-.424c-4.426,0-8.131,3.8-8.672,8.089a10.174,10.174,0,0,0,.638,4.793,13.342,13.342,0,0,0,1.765,3.132l1.6,1.888a42.893,42.893,0,0,0,3.71,3.3c.279.217.515.407.785.628.519.424,1.027.812,1.549,1.228.269.214.522.4.784.629.13.114.261.2.393.312A1.03,1.03,0,0,0,325.534,462.659Z" transform="translate(41.448 10.454)" fill="#313133" fill-rule="evenodd"/>
    </g>
  </g>
</svg>
