<svg xmlns="http://www.w3.org/2000/svg" width="96.104" height="150.664" viewBox="0 0 96.104 150.664">
  <path id="Контур_1" data-name="Контур 1" d="M-256.319,198.064a47.9,47.9,0,0,1,33.978,14.074,47.909,47.909,0,0,1,14.074,33.978,47.908,47.908,0,0,1-14.074,33.977,47.906,47.906,0,0,1-33.978,14.074A47.906,47.906,0,0,1-290.3,280.094a47.908,47.908,0,0,1-14.074-33.977A47.909,47.909,0,0,1-290.3,212.138a47.9,47.9,0,0,1,33.978-14.074Zm1.027,132.565c.069-.056.626-.5,1.233-.992V329.6q.414-.308.8-.616c.314-.255.583-.474.73-.6l.018-.015.024-.02,0,0,.017-.014.018-.015h0q.717-.611,1.333-1.222a7.035,7.035,0,0,0,1.431-1.705l6.236-17.034a8.769,8.769,0,0,1,.878-1.972.983.983,0,0,1,.8-.469.706.706,0,0,1,.56.288,1.016,1.016,0,0,1,.239.681,9.907,9.907,0,0,1-.47,2.2q-.473,1.643-1.3,3.817c-.576,1.5-1.213,3.051-1.928,4.637s-1.1,2.462-1.151,2.61l-4.715,13.175c-.064.176-.119.329-.154.463a1.219,1.219,0,0,0-.049.231.388.388,0,0,0,.084.238c.055.078.105.113.16.113a8.3,8.3,0,0,0,2.224-1.368q1.159-.837,2.782-2.092h0l3.117-2.446q.8-.672,1.474-1.333a7.032,7.032,0,0,0,1.452-1.74l1.727-3.774h1.809l-4.461,10.6c-.042.1-.105.231-.182.393a2.6,2.6,0,0,0-.372,1.052.322.322,0,0,0,.063.162.166.166,0,0,0,.12.043c.56,0,2.1-1.2,4.594-3.606a86.683,86.683,0,0,0,7.731-8.643h1.725l-6.572,14.578.476-.414q5.7-4.84,8.236-6.629v1.69q-4.009,3.063-6.679,5.346a40.153,40.153,0,0,0-3.88,3.662,42.558,42.558,0,0,1-2.714,6.686q-1.21,2.189-2.175,2.189a.7.7,0,0,1-.6-.315,1.441,1.441,0,0,1-.224-.856,9.744,9.744,0,0,1,1.311-4.23,20.255,20.255,0,0,1,3.473-4.785l5.465-12.263a98.329,98.329,0,0,1-7.857,7.92c-1.972,1.691-3.4,2.533-4.309,2.533a1.107,1.107,0,0,1-.707-.175.757.757,0,0,1-.218-.625,3.19,3.19,0,0,1,.161-.786,13.358,13.358,0,0,1,.477-1.276l2.014-4.758q-.262.244-.515.468h0c-.332.294-.653.56-.965.8a12.719,12.719,0,0,1-1.28.881l-.16.1-1.149.894q-5.756,4.474-6.868,4.47a1.174,1.174,0,0,1-.864-.288,1.237,1.237,0,0,1-.287-.891,3.865,3.865,0,0,1,.154-.975,18.876,18.876,0,0,1,.6-1.8l1.438-3.929q-.511.458-1.026.878h0q-.267.218-.536.426c-.352.276-.71.538-1.075.791l-1.091.824q-6.576,5.088-7.971,5.092a.7.7,0,0,1-.6-.344,1.474,1.474,0,0,1-.239-.877,2.374,2.374,0,0,1,.113-.673,5.081,5.081,0,0,1,.337-.814l2.575-5.037c-.519.477-1.017.905-1.48,1.263a12.711,12.711,0,0,1-1.34.919V329.6a24.837,24.837,0,0,0,2.854-2.406,8.455,8.455,0,0,0,1.522-1.8l1.846-3.774h1.809l-5.5,11.688c-.07.148-.127.287-.175.407a.9.9,0,0,0-.077.267.457.457,0,0,0,.085.28c.055.078.1.113.161.113a8.36,8.36,0,0,0,2.287-1.389q1.3-.936,3.123-2.35l0,0,.005,0Zm-8.947,3.359a28.021,28.021,0,0,1-4.223.792,45.181,45.181,0,0,1-5.045.267c-1.122,0-2.146-.029-3.072-.091s-1.789-.156-2.6-.281a13.359,13.359,0,0,0,3.921-4.2,57.606,57.606,0,0,0,4.2-9.942,41.483,41.483,0,0,1,4.069-9.112c1.255-1.874,2.566-2.807,3.921-2.807a1.685,1.685,0,0,1,1.368.582,2.538,2.538,0,0,1,.485,1.655A14.1,14.1,0,0,1-262.8,316.6a39.225,39.225,0,0,1-4.475,7.163l2.567-.435a37.276,37.276,0,0,0,3.971-6.855,14.548,14.548,0,0,0,1.375-5.542,4.267,4.267,0,0,0-.976-2.96,3.33,3.33,0,0,0-2.6-1.087q-2.609,0-4.828,2.714a32.086,32.086,0,0,0-4.483,8.728c-.245.7-.61,1.7-1.093,3q-3.864,10.765-7.746,12.74c-.617-.14-1.178-.239-1.684-.309a10.306,10.306,0,0,0-1.382-.105,5.623,5.623,0,0,0-2.525.476,1.436,1.436,0,0,0-.926,1.3,1.1,1.1,0,0,0,.639.982,3.613,3.613,0,0,0,1.767.357,10.6,10.6,0,0,0,2.273-.217,7.323,7.323,0,0,0,1.923-.708,28.208,28.208,0,0,0,3.648.7,31.345,31.345,0,0,0,3.767.224c1.347,0,2.743-.063,4.2-.182s2.9-.308,4.356-.554l.8-2.048Zm9.387-15.273a1.5,1.5,0,0,0,1.263-.7,2.752,2.752,0,0,0,.5-1.663.994.994,0,0,0-.267-.722.923.923,0,0,0-.7-.281,1.529,1.529,0,0,0-1.221.773,2.748,2.748,0,0,0-.547,1.627.955.955,0,0,0,.259.7.942.942,0,0,0,.709.267Zm-21.7-34.283a43.143,43.143,0,0,0,20.231,5,43.143,43.143,0,0,0,19.914-4.839,24.539,24.539,0,0,1-10.044.119c-6.454-1.564-7.314-4.341-7.314-4.341s2.7-2.036,9.58-10.328,7.706-19.791,7.706-19.791,5.553-2.9,10.873-3.168a25.579,25.579,0,0,1,8.762.9c.83,7.841-5.238,19.09-10.974,24.265a33.142,33.142,0,0,1-19.807,8.211c15.032-.8,28.1-9.139,33.25-23.482A43.423,43.423,0,0,0-213,246.116a43.19,43.19,0,0,0-12.689-30.634,43.186,43.186,0,0,0-30.633-12.688,43.187,43.187,0,0,0-30.633,12.688,43.19,43.19,0,0,0-12.689,30.634,43.646,43.646,0,0,0,.314,5.23c3.481,17.785,17.9,28.215,34.8,29.117a33.14,33.14,0,0,1-19.806-8.211c-5.735-5.175-11.8-16.424-10.973-24.265a25.568,25.568,0,0,1,8.761-.9c5.319.273,10.873,3.168,10.873,3.168s.822,11.5,7.707,19.791,9.58,10.328,9.58,10.328-.861,2.777-7.315,4.341a25.43,25.43,0,0,1-10.847-.284Zm20.231-68.763a7.42,7.42,0,0,0-7.42,7.419,7.42,7.42,0,0,0,7.42,7.421,7.42,7.42,0,0,0,7.42-7.421,7.42,7.42,0,0,0-7.42-7.419ZM-272.06,227c-2.268,4.615-5.24,17.679-1.016,31.135,3.077,9.8,10.469,17.13,14.258,20.389a50.282,50.282,0,0,1-1.5-23.988,35.792,35.792,0,0,1,3.2-9.372A54.238,54.238,0,0,0-272.06,227Zm13.539,27.066c-1.351,7.258-.352,20.123,2.347,26.324,0,0,12.358-8.8,16.584-22.255s1.252-26.52-1.017-31.135C-243.031,228.8-255.783,239.36-258.52,254.066Z" transform="translate(304.371 -198.064)" fill="none" fill-rule="evenodd"/>
</svg>
