<svg xmlns="http://www.w3.org/2000/svg" width="67.308" height="66.917" viewBox="0 0 67.308 66.917">
  <g id="Сгруппировать_3" data-name="Сгруппировать 3" transform="translate(933 -1409.461)">
    <g id="Сгруппировать_220" data-name="Сгруппировать 220" transform="translate(-933 1409.461)">
      <ellipse id="Эллипс_32" data-name="Эллипс 32" cx="33.654" cy="33.459" rx="33.654" ry="33.459" transform="translate(0 0)" fill="#01339b"/>
      <ellipse id="Эллипс_33" data-name="Эллипс 33" cx="23.507" cy="23.371" rx="23.507" ry="23.371" transform="translate(10.147 10.088)" fill="#225bd1"/>
      <ellipse id="Эллипс_34" data-name="Эллипс 34" cx="2.044" cy="2.032" rx="2.044" ry="2.032" transform="translate(60.118 31.426)" fill="#fff"/>
      <ellipse id="Эллипс_35" data-name="Эллипс 35" cx="2.044" cy="2.032" rx="2.044" ry="2.032" transform="translate(3.101 31.426)" fill="#fff"/>
      <path id="Контур_203" data-name="Контур 203" d="M1998.176,529.168a3.386,3.386,0,0,1-.074-3.865,4.175,4.175,0,0,1,2.4-1.689,3.468,3.468,0,0,1,1.368-.063,3.373,3.373,0,0,1,1.251.467,3.433,3.433,0,0,1,1.006.959,3.52,3.52,0,0,1,.546,1.161,3.19,3.19,0,0,1,.073,1.217l1.584.312-1.142,1.1-.848-.159a4.335,4.335,0,0,1-.508.694,4.035,4.035,0,0,1-.687.606,3.934,3.934,0,0,1-1.354.628,3.4,3.4,0,0,1-3.615-1.371Zm1.46-1.029a1.748,1.748,0,0,0,.538.506,1.809,1.809,0,0,0,1.358.21,1.878,1.878,0,0,0,.658-.3,2,2,0,0,0,.341-.3l-1.39-.279,1.2-1.092.646.131a1.683,1.683,0,0,0-.326-1.007,1.748,1.748,0,0,0-.538-.506,1.8,1.8,0,0,0-.662-.237,1.865,1.865,0,0,0-.7.031,1.934,1.934,0,0,0-1.161.818,1.809,1.809,0,0,0-.259,1.35A1.75,1.75,0,0,0,1999.636,528.139Z" transform="translate(-1983.547 -516.67)" fill="#fff"/>
      <path id="Контур_204" data-name="Контур 204" d="M2125.214,451.2l1.141,3.386q.092.273.209.551a1.606,1.606,0,0,0,.3.474.9.9,0,0,0,.453.266,1.212,1.212,0,0,0,.676-.067,1.192,1.192,0,0,0,.575-.355.941.941,0,0,0,.2-.486,1.544,1.544,0,0,0-.046-.559q-.076-.292-.167-.564l-1.141-3.386,1.61-.543,1.216,3.609a3.075,3.075,0,0,1,.051,2.347,3.655,3.655,0,0,1-4.092,1.379,3.064,3.064,0,0,1-1.384-1.9l-1.216-3.609Z" transform="translate(-2102.566 -447.189)" fill="#fff"/>
      <path id="Контур_205" data-name="Контур 205" d="M2265.6,442.336l-2.435.163-.315,1.165-1.817.122,2.056-6.723,1.861-.125,2.935,6.389-1.818.122Zm-.539-1.265-.911-2.131-.619,2.234Z" transform="translate(-2232.326 -434.935)" fill="#fff"/>
      <path id="Контур_206" data-name="Контур 206" d="M2393.978,439.15l-.776,5.065,2.024.31-.219,1.43-3.713-.569.995-6.5Z" transform="translate(-2355.311 -436.779)" fill="#fff"/>
      <path id="Контур_207" data-name="Контур 207" d="M2472.511,457.655l-1.929,6.282-1.633-.5,1.929-6.282Z" transform="translate(-2428.627 -454.021)" fill="#fff"/>
      <path id="Контур_208" data-name="Контур 208" d="M2534.224,476.815l-2.206,4.625-1.542-.735,2.206-4.625-1.267-.6.623-1.306,4.075,1.943-.623,1.306Z" transform="translate(-2486.717 -470.087)" fill="#fff"/>
      <path id="Контур_209" data-name="Контур 209" d="M2618.227,525.866l.242-4.166,1.6,1.266-.157,2.165,2.064-.656,1.6,1.266-4.007,1.185-1.958,2.473-1.339-1.06Z" transform="translate(-2567.717 -514.962)" fill="#fff"/>
      <path id="Контур_210" data-name="Контур 210" d="M2143.46,845.645a8.623,8.623,0,1,0,0,17.246,8.755,8.755,0,0,0,1.191-.081l.21-.029v-2.143l-.285.049a6.592,6.592,0,0,1-1.116.095,6.514,6.514,0,1,1,0-13.028,6.586,6.586,0,0,1,1.116.095l.285.049v-2.143l-.21-.029A8.736,8.736,0,0,0,2143.46,845.645Z" transform="translate(-2113.18 -820.809)" fill="#fff"/>
      <path id="Контур_211" data-name="Контур 211" d="M2363.533,849.662a6.491,6.491,0,0,1,4.606-1.908,6.576,6.576,0,0,1,1.116.095l.285.049v-2.143l-.21-.029a8.744,8.744,0,0,0-1.191-.081,8.623,8.623,0,1,0,0,17.246,8.763,8.763,0,0,0,1.191-.081l.21-.029v-2.143l-.285.049a6.582,6.582,0,0,1-1.116.095,6.509,6.509,0,0,1-6.456-5.639h7.857v-2.109h-7.8a6.5,6.5,0,0,1,1.791-3.372Z" transform="translate(-2325.308 -820.809)" fill="#fff"/>
      <path id="Контур_212" data-name="Контур 212" d="M2299.2,622.2l.921,1.867,2.061.3-1.491,1.453.352,2.052-1.843-.969-1.843.969.352-2.052-1.491-1.453,2.06-.3Z" transform="translate(-2265.547 -609.845)" fill="#fdcf3f"/>
      <path id="Контур_213" data-name="Контур 213" d="M2139.916,666.685l.921,1.867,2.06.3-1.491,1.453.352,2.052-1.843-.969-1.842.969.352-2.052-1.491-1.453,2.06-.3Z" transform="translate(-2115.16 -651.847)" fill="#fdcf3f"/>
      <path id="Контур_214" data-name="Контур 214" d="M2020.842,779.014l.922,1.867,2.06.3-1.491,1.453.352,2.052-1.843-.969-1.842.969.352-2.052-1.49-1.453,2.06-.3Z" transform="translate(-2002.739 -757.901)" fill="#fdcf3f"/>
      <path id="Контур_215" data-name="Контур 215" d="M1972.153,949.246l.921,1.867,2.06.3-1.491,1.453.352,2.052-1.842-.969-1.843.969.352-2.052-1.491-1.453,2.06-.3Z" transform="translate(-1956.769 -918.622)" fill="#fdcf3f"/>
      <path id="Контур_216" data-name="Контур 216" d="M2027.587,1104.329l.921,1.867,2.06.3-1.49,1.453.352,2.052-1.842-.969-1.843.969.352-2.052-1.491-1.453,2.06-.3Z" transform="translate(-2009.106 -1065.042)" fill="#fdcf3f"/>
      <path id="Контур_217" data-name="Контур 217" d="M2133.171,1216.658l.921,1.867,2.06.3-1.491,1.453.352,2.052-1.843-.969-1.843.969.352-2.052-1.491-1.453,2.06-.3Z" transform="translate(-2108.793 -1171.096)" fill="#fdcf3f"/>
      <path id="Контур_218" data-name="Контур 218" d="M2299.2,1276.294l.921,1.866,2.061.3-1.491,1.453.352,2.052L2299.2,1281l-1.843.969.352-2.052-1.491-1.453,2.06-.3Z" transform="translate(-2265.547 -1227.4)" fill="#fdcf3f"/>
      <path id="Контур_219" data-name="Контур 219" d="M2465.231,1216.658l.921,1.867,2.06.3-1.491,1.453.352,2.052-1.843-.969-1.843.969.352-2.052-1.491-1.453,2.06-.3Z" transform="translate(-2422.302 -1171.096)" fill="#fdcf3f"/>
      <path id="Контур_220" data-name="Контур 220" d="M2570.816,1104.329l.922,1.867,2.06.3-1.491,1.453.352,2.052-1.843-.969-1.842.969.352-2.052-1.49-1.453,2.06-.3Z" transform="translate(-2521.988 -1065.042)" fill="#fdcf3f"/>
      <path id="Контур_221" data-name="Контур 221" d="M2626.249,949.246l.921,1.867,2.06.3-1.49,1.453.352,2.052-1.843-.969-1.843.969.352-2.052-1.49-1.453,2.06-.3Z" transform="translate(-2574.325 -918.622)" fill="#fdcf3f"/>
      <path id="Контур_222" data-name="Контур 222" d="M2577.559,779.015l.921,1.867,2.06.3-1.491,1.453.352,2.052-1.842-.969-1.843.969.352-2.052-1.491-1.453,2.06-.3Z" transform="translate(-2528.355 -757.901)" fill="#fdcf3f"/>
      <path id="Контур_223" data-name="Контур 223" d="M2458.486,666.685l.921,1.867,2.06.3-1.491,1.453.352,2.052-1.843-.969-1.843.969L2457,670.3l-1.49-1.453,2.06-.3Z" transform="translate(-2415.934 -651.847)" fill="#fdcf3f"/>
      <g id="Сгруппировать_219" data-name="Сгруппировать 219" transform="translate(61.978 53.679) rotate(149)">
        <g id="Сгруппировать_218" data-name="Сгруппировать 218" transform="translate(0 0)">
          <path id="Контур_224" data-name="Контур 224" d="M5.643,2.957,5.112.287,6.557,0,7.39,4.2.824,5.5,0,1.352l1.445-.287.521,2.622,1.088-.216L2.58,1.087,4.006.8l.474,2.384Z" transform="translate(37.505 22.373)" fill="#fff"/>
          <path id="Контур_225" data-name="Контур 225" d="M5.934.193A2.829,2.829,0,0,1,7.3,1.637a2.828,2.828,0,0,1,.238,1.972,2.074,2.074,0,0,1-1.2,1.379l-4.1,1.924L1.568,5.5,5.551,3.636q.849-.4.395-1.366T4.644,1.7L.66,3.566,0,2.158,4.1.234A2.075,2.075,0,0,1,5.934.193Z" transform="translate(35.081 16.069)" fill="#fff"/>
          <path id="Контур_226" data-name="Контур 226" d="M5.15,1.286,4.28,3.679l.473.568L6.444,2.84l1,1.2L2.293,8.318.552,6.225a2.27,2.27,0,0,1-.543-1.7A2.2,2.2,0,0,1,.823,2.963,2.012,2.012,0,0,1,1.915,2.5a2.349,2.349,0,0,1,1.2.182L4.08,0ZM2.4,6.2,3.724,5.1l-.746-.9a.72.72,0,0,0-.542-.263.871.871,0,0,0-.617.216.872.872,0,0,0-.324.567.72.72,0,0,0,.16.581Z" transform="translate(32.234 9.1)" fill="#fff"/>
          <path id="Контур_227" data-name="Контур 227" d="M2.888.053a3.46,3.46,0,0,1,2.634.6A3.46,3.46,0,0,1,7.013,2.908a3.321,3.321,0,0,1-.562,2.623,3.322,3.322,0,0,1-2.257,1.45,3.46,3.46,0,0,1-2.634-.6A3.461,3.461,0,0,1,.068,4.126,3.322,3.322,0,0,1,.63,1.5,3.322,3.322,0,0,1,2.888.053ZM5.52,3.143a1.946,1.946,0,0,0-.848-1.261,1.946,1.946,0,0,0-1.479-.349,1.915,1.915,0,0,0-1.284.856,1.915,1.915,0,0,0-.349,1.5,1.946,1.946,0,0,0,.848,1.261A1.946,1.946,0,0,0,3.887,5.5a1.916,1.916,0,0,0,1.284-.856A1.915,1.915,0,0,0,5.52,3.143Z" transform="translate(26.495 4.913)" fill="#fff"/>
          <path id="Контур_228" data-name="Контур 228" d="M1.621,5.978A2.338,2.338,0,0,1,.247,4.785,2.18,2.18,0,0,1,.135,3.023a2.18,2.18,0,0,1,1.19-1.305,2.337,2.337,0,0,1,1.818-.071l.963.338L4.8,0,6.271.516,4.052,6.832ZM2.667,3a.778.778,0,0,0-.642.038.86.86,0,0,0-.423.5.86.86,0,0,0,.017.655.778.778,0,0,0,.477.431l.963.338.57-1.624Z" transform="translate(20.42 2.164)" fill="#fff"/>
          <path id="Контур_229" data-name="Контур 229" d="M3.266,1.781l-2.7-.318L.735,0,4.983.5,4.2,7.149,0,6.654.172,5.191,2.828,5.5l.13-1.1L.543,4.118l.17-1.444,2.414.284Z" transform="translate(14.841 0.114)" fill="#fff"/>
          <path id="Контур_230" data-name="Контур 230" d="M1.689.584l.463,1,2.51-.3L4.875.2,6.565,0l-1.5,6.922-1.969.236L0,.786Zm2.68,2.183-1.583.189L3.87,5.3Z" transform="translate(7.077 0)" fill="#fff"/>
          <path id="Контур_231" data-name="Контур 231" d="M3.912,7.62l-1.446.573L0,1.97l1.085-.43L4.864,3.952,3.525.573,4.972,0,7.437,6.224l-1.085.43L2.573,4.242Z" transform="translate(0 1.389)" fill="#fff"/>
        </g>
      </g>
    </g>
  </g>
</svg>
